<svg width="160" height="36" viewBox="0 0 160 36" fill="none" xmlns="http://www.w3.org/2000/svg">
  <defs>
    <linearGradient id="g" x1="0" y1="0" x2="1" y2="1">
      <stop offset="0%" stop-color="#3aa2ff"/>
      <stop offset="100%" stop-color="#ff4d6d"/>
    </linearGradient>
  </defs>
  <g>
    <path d="M20 5c4 0 6.5 2.5 6.5 6.2 0 6.3-6.5 9.6-6.5 13.3 0-3.7-6.5-7-6.5-13.3C13.5 7.5 16 5 20 5z" fill="url(#g)"/>
    <circle cx="20" cy="27.2" r="2" fill="#123f74"/>
  </g>
  <text x="40" y="24" font-family="Poppins, Arial" font-size="18" font-weight="700" fill="#123f74">Campos</text>
  <text x="115" y="24" font-family="Poppins, Arial" font-size="18" font-weight="500" fill="#3aa2ff">Cardiologia</text>
  <!-- Logo gerada para uso demonstrativo -->
</svg>

<svg width="160" height="36" viewBox="0 0 160 36" fill="none" xmlns="http://www.w3.org/2000/svg">
  <defs>
    <linearGradient id="g" x1="0" y1="0" x2="1" y2="1">
      <stop offset="0%" stop-color="#3aa2ff"/>
      <stop offset="100%" stop-color="#ff4d6d"/>
    </linearGradient>
  </defs>
  <g>
    <path d="M20 5c4 0 6.5 2.5 6.5 6.2 0 6.3-6.5 9.6-6.5 13.3 0-3.7-6.5-7-6.5-13.3C13.5 7.5 16 5 20 5z" fill="url(#g)"/>
    <circle cx="20" cy="27.2" r="2" fill="#123f74"/>
  </g>
  <text x="40" y="24" font-family="Poppins, Arial" font-size="18" font-weight="700" fill="#123f74">Campos</text>
  <text x="115" y="24" font-family="Poppins, Arial" font-size="18" font-weight="500" fill="#3aa2ff">Cardiologia</text>
</svg>


